<svg width="675" height="505" viewBox="0 0 675 505" fill="none" xmlns="http://www.w3.org/2000/svg">
<g clip-path="url(#clip0_36_341)">
<mask id="mask0_36_341" style="mask-type:luminance" maskUnits="userSpaceOnUse" x="0" y="0" width="675" height="505">
<path d="M674.506 0H0V504.775H674.506V0Z" fill="white"/>
</mask>
<g mask="url(#mask0_36_341)">
<path d="M441.015 38.6493H26.7933C14.2196 38.6493 4.02661 48.8397 4.02661 61.4102V164.109C4.02661 176.679 14.2196 186.87 26.7933 186.87H441.015C453.588 186.87 463.782 176.679 463.782 164.109V61.4102C463.782 48.8397 453.588 38.6493 441.015 38.6493Z" fill="white"/>
<path d="M463.782 131.417V177.99C463.782 182.896 453.895 186.868 441.77 186.868H26.0654C13.9046 186.868 4.05371 182.896 4.05371 177.99V151.033C32.0783 158.455 63.9858 163.46 96.7112 166.569C136.258 170.325 177.019 171.421 217.609 171.583C266.144 171.781 315.488 170.604 361.175 164.017C403.041 157.997 441.86 146.899 463.782 131.417Z" fill="#E8F0F9"/>
<path d="M440.584 190.634H26.3619C19.374 190.627 12.6743 187.849 7.73226 182.91C2.79026 177.971 0.0095166 171.274 0 164.288V61.5803C0.0095166 54.5942 2.79026 47.8971 7.73226 42.958C12.6743 38.019 19.374 35.2412 26.3619 35.234H440.584C447.573 35.2412 454.274 38.0201 459.217 42.9612C464.158 47.9022 466.938 54.6017 466.945 61.5893V164.297C466.934 171.281 464.152 177.976 459.21 182.913C454.268 187.85 447.57 190.627 440.584 190.634ZM26.3619 42.4226C21.2803 42.4274 16.4081 44.447 12.814 48.0385C9.22 51.63 7.19755 56.5 7.19041 61.5803V164.288C7.19518 169.369 9.21658 174.242 12.8109 177.836C16.4052 181.429 21.2788 183.45 26.3619 183.454H440.584C445.666 183.45 450.54 181.429 454.135 177.836C457.729 174.242 459.751 169.369 459.755 164.288V61.5803C459.751 56.4985 457.729 51.6261 454.135 48.0327C450.54 44.4393 445.666 42.4184 440.584 42.4136L26.3619 42.4226Z" fill="#314E5D"/>
<path d="M648.638 268.685H175.158C162.585 268.685 152.392 278.875 152.392 291.446V394.144C152.392 406.715 162.585 416.905 175.158 416.905H648.638C661.212 416.905 671.405 406.715 671.405 394.144V291.446C671.405 278.875 661.212 268.685 648.638 268.685Z" fill="white"/>
<path d="M671.405 361.452V408.026C671.405 412.932 660.278 416.904 646.553 416.904H177.244C163.519 416.904 152.392 412.932 152.392 408.026V381.068C184.03 388.491 220.054 393.496 256.994 396.605C301.593 400.361 347.647 401.457 393.477 401.619C448.25 401.816 503.976 400.639 555.549 394.053C602.835 388.032 646.661 376.935 671.405 361.452Z" fill="#E8F0F9"/>
<path d="M340.035 269.054C291.14 271.983 223.19 269.152 181.028 279.926C161.011 285.03 156.077 294.933 152.85 303.119L152.913 280.196C152.913 277.258 153.192 274.059 158.504 271.812C165.074 269.045 176.605 268.829 186.762 268.838C236.627 268.856 291.158 266.879 340.035 269.054Z" fill="#4ED9FF"/>
<path d="M648.153 420.668H174.664C167.676 420.661 160.976 417.883 156.035 412.944C151.092 408.005 148.312 401.308 148.302 394.321V291.614C148.309 284.627 151.089 277.927 156.031 272.987C160.974 268.045 167.675 265.266 174.664 265.259H648.153C655.142 265.266 661.843 268.045 666.786 272.987C671.727 277.927 674.507 284.627 674.515 291.614V394.321C674.505 401.308 671.725 408.005 666.782 412.944C661.841 417.883 655.141 420.661 648.153 420.668ZM174.664 272.457C169.582 272.461 164.711 274.481 161.116 278.073C157.522 281.664 155.5 286.534 155.493 291.614V394.321C155.497 399.404 157.519 404.276 161.113 407.869C164.707 411.463 169.581 413.484 174.664 413.488H648.153C653.236 413.484 658.11 411.463 661.704 407.869C665.298 404.276 667.32 399.404 667.324 394.321V291.614C667.32 286.533 665.298 281.66 661.704 278.066C658.11 274.473 653.236 272.453 648.153 272.448L174.664 272.457Z" fill="#314E5D"/>
<path d="M582.828 3.03625H109.411C96.8377 3.03625 86.6443 13.2266 86.6443 25.7972V448.299C86.6443 460.869 96.8377 471.06 109.411 471.06H582.828C595.401 471.06 605.594 460.869 605.594 448.299V25.7972C605.594 13.2266 595.401 3.03625 582.828 3.03625Z" fill="#1DCDFF"/>
<path d="M605.595 295.972V442.997C605.595 458.48 594.467 471.024 580.743 471.024H111.451C97.7267 471.024 86.5996 458.444 86.5996 442.997V357.974C118.237 381.409 154.252 397.224 191.184 407.045C235.783 418.915 281.828 422.384 327.649 422.887C382.422 423.507 438.13 419.787 489.703 398.985C537.034 379.917 580.86 344.855 605.595 295.972Z" fill="#1AB5E1"/>
<path d="M274.269 4.21379C225.384 13.4781 157.479 4.53727 115.28 38.5394C95.273 54.6599 90.3386 85.9213 87.1118 111.773L87.1837 39.411C87.1837 30.1467 87.4624 20.0197 92.7744 12.9479C99.3446 4.21379 110.876 3.53985 121.024 3.53985C170.871 3.59377 225.393 -2.53452 274.269 4.21379Z" fill="#4ED9FF"/>
<path d="M582.342 475.212H108.917C101.928 475.205 95.2261 472.426 90.2836 467.485C85.3418 462.544 82.562 455.844 82.5549 448.857V26.3552C82.562 19.3676 85.3418 12.6682 90.2836 7.72716C95.2261 2.78614 101.928 0.00713633 108.917 0H582.342C589.331 0.00713633 596.033 2.78614 600.975 7.72716C605.918 12.6682 608.697 19.3676 608.704 26.3552V448.866C608.695 455.852 605.914 462.549 600.972 467.488C596.03 472.428 589.331 475.205 582.342 475.212ZM108.917 7.18861C103.834 7.19337 98.9598 9.21427 95.3655 12.8077C91.7712 16.4011 89.7501 21.2734 89.7453 26.3552V448.866C89.7501 453.947 91.7712 458.82 95.3655 462.414C98.9598 466.007 103.834 468.028 108.917 468.033H582.342C587.426 468.028 592.299 466.007 595.894 462.414C599.488 458.82 601.509 453.947 601.514 448.866V26.3552C601.509 21.2734 599.488 16.4011 595.894 12.8077C592.299 9.21427 587.426 7.19337 582.342 7.18861H108.917Z" fill="#314E5D"/>
<path d="M546.444 33.2122H147.898C140.025 33.2122 133.643 39.5928 133.643 47.4636V421.945C133.643 429.816 140.025 436.197 147.898 436.197H546.444C554.317 436.197 560.699 429.816 560.699 421.945V47.4636C560.699 39.5928 554.317 33.2122 546.444 33.2122Z" fill="white"/>
<path d="M560.016 44.6396V122.888H132.933V44.6396C132.933 38.6371 139.045 33.7668 146.586 33.7668H546.364C553.905 33.7668 560.016 38.6371 560.016 44.6396Z" fill="#DCEAEF"/>
<path d="M545.932 442.029H147.403C142.67 442.024 138.133 440.143 134.787 436.796C131.44 433.451 129.558 428.915 129.553 424.183V46.7807C129.56 42.0508 131.443 37.5168 134.79 34.173C138.136 30.8292 142.672 28.9487 147.403 28.944H545.932C550.664 28.9487 555.202 30.8304 558.549 34.1761C561.896 37.5219 563.778 42.0582 563.782 46.7897V424.192C563.775 428.922 561.892 433.456 558.546 436.8C555.2 440.143 550.663 442.024 545.932 442.029ZM147.403 36.1326C144.578 36.1373 141.869 37.2617 139.871 39.2593C137.873 41.2568 136.748 43.9648 136.744 46.7897V424.192C136.751 427.015 137.876 429.721 139.874 431.717C141.872 433.712 144.579 434.836 147.403 434.84H545.932C548.758 434.836 551.466 433.711 553.464 431.713C555.462 429.715 556.587 427.008 556.592 424.183V46.7807C556.585 43.9573 555.459 41.2517 553.461 39.2561C551.463 37.2605 548.756 36.1373 545.932 36.1326H147.403Z" fill="#314E5D"/>
<path d="M362.756 85.8948H181.117V101.584H362.756V85.8948Z" fill="white"/>
<path d="M175.455 161.501H264.32V157.772H175.455V161.501Z" fill="#CED5D8"/>
<path d="M175.455 169.715H368.868V165.986H175.455V169.715Z" fill="#CED5D8"/>
<path d="M175.455 177.929H264.32V174.2H175.455V177.929Z" fill="#CED5D8"/>
<path d="M175.455 186.138H368.868V182.409H175.455V186.138Z" fill="#CED5D8"/>
<path d="M175.455 194.352H264.32V190.623H175.455V194.352Z" fill="#CED5D8"/>
<path d="M175.455 202.559H368.868V198.83H175.455V202.559Z" fill="#CED5D8"/>
<path d="M175.455 235.715H264.32V231.985H175.455V235.715Z" fill="#CED5D8"/>
<path d="M175.455 243.928H368.868V240.199H175.455V243.928Z" fill="#CED5D8"/>
<path d="M175.455 252.142H264.32V248.413H175.455V252.142Z" fill="#CED5D8"/>
<path d="M175.455 260.352H368.868V256.623H175.455V260.352Z" fill="#CED5D8"/>
<path d="M175.455 268.566H264.32V264.837H175.455V268.566Z" fill="#CED5D8"/>
<path d="M175.455 276.772H368.868V273.043H175.455V276.772Z" fill="#CED5D8"/>
<path d="M175.455 309.928H264.32V306.199H175.455V309.928Z" fill="#CED5D8"/>
<path d="M175.455 318.142H368.868V314.413H175.455V318.142Z" fill="#CED5D8"/>
<path d="M175.455 326.355H264.32V322.626H175.455V326.355Z" fill="#CED5D8"/>
<path d="M175.455 334.565H368.868V330.836H175.455V334.565Z" fill="#CED5D8"/>
<path d="M175.455 342.779H264.32V339.05H175.455V342.779Z" fill="#CED5D8"/>
<path d="M175.455 350.986H368.868V347.257H175.455V350.986Z" fill="#CED5D8"/>
<path d="M475.43 58.3372H542.139V50.4927H475.43V58.3372Z" fill="#EEA248"/>
<path d="M399.517 58.3372H466.226V50.4927H399.517V58.3372Z" fill="#EEA248"/>
<path d="M154.153 61.9738C158.333 61.9738 161.721 58.5864 161.721 54.4078C161.721 50.2293 158.333 46.8418 154.153 46.8418C149.974 46.8418 146.585 50.2293 146.585 54.4078C146.585 58.5864 149.974 61.9738 154.153 61.9738Z" fill="#EEA248"/>
<path d="M421.703 338.08L397.572 360.957L446.536 412.578L470.667 389.7L421.703 338.08Z" fill="#314E5D"/>
<g opacity="0.5">
<path opacity="0.5" d="M400.768 338.896C432.216 309.082 433.534 259.424 403.711 227.984C373.889 196.544 324.219 195.226 292.771 225.04C261.323 254.856 260.004 304.513 289.827 335.953C319.65 367.394 369.319 368.711 400.768 338.896Z" fill="#8BDDEB"/>
<path opacity="0.5" d="M305.413 327.306C297.476 318.943 291.482 308.935 287.857 297.992C284.231 287.05 283.062 275.442 284.436 263.997C285.809 252.552 289.689 241.551 295.801 231.775C301.912 222.001 310.105 213.693 319.794 207.444C309.426 211.243 299.977 217.186 292.064 224.885C284.151 232.584 277.952 241.865 273.873 252.123C269.793 262.382 267.925 273.385 268.39 284.414C268.855 295.443 271.643 306.25 276.572 316.128C281.5 326.006 288.459 334.734 296.992 341.739C305.525 348.746 315.441 353.872 326.092 356.784C336.742 359.697 347.888 360.329 358.799 358.641C369.711 356.952 380.144 352.98 389.415 346.984C375.021 352.266 359.395 353.218 344.467 349.721C329.538 346.223 315.961 338.431 305.413 327.306Z" fill="#62D6F8"/>
</g>
<path d="M432.414 198.209C423.861 189.172 413.963 181.512 403.068 175.502C402.879 175.385 402.69 175.286 402.483 175.187C377.295 161.474 348.051 157.164 319.977 163.025C291.902 168.887 266.828 184.54 249.236 207.186C231.644 229.831 222.681 257.993 223.949 286.639C225.217 315.284 236.634 342.544 256.159 363.547C256.437 363.861 256.725 364.167 257.057 364.446C265.985 373.881 276.381 381.81 287.841 387.925L288.165 388.096C313.492 401.489 342.755 405.45 370.733 399.273C398.711 393.095 423.584 377.18 440.913 354.368C458.242 331.556 466.901 303.331 465.344 274.728C463.787 246.125 452.116 219.006 432.414 198.209ZM402.852 227.988C413.532 239.247 420.634 253.419 423.257 268.712C425.881 284.006 423.91 299.735 417.593 313.908C411.276 328.081 400.897 340.064 387.767 348.339C374.639 356.616 359.35 360.814 343.835 360.403C328.319 359.992 313.274 354.991 300.602 346.031C287.929 337.071 278.2 324.557 272.642 310.068C267.084 295.58 265.948 279.77 269.379 264.637C272.809 249.503 280.651 235.727 291.913 225.049C299.39 217.96 308.191 212.412 317.814 208.722C327.436 205.034 337.691 203.276 347.993 203.549C358.295 203.823 368.442 206.123 377.854 210.317C387.268 214.513 395.761 220.52 402.852 227.997V227.988Z" fill="#E7E7E7"/>
<path d="M440.889 351.723C420.369 371.18 393.672 382.825 365.448 384.631C337.224 386.438 309.261 378.292 286.425 361.611C263.59 344.928 247.33 320.768 240.475 293.337C233.622 265.905 236.608 236.939 248.914 211.482C238.966 225.02 231.95 240.483 228.315 256.884C224.682 273.286 224.507 290.265 227.806 306.736C231.103 323.208 237.8 338.812 247.47 352.551C257.139 366.29 269.568 377.862 283.962 386.529C298.356 395.196 314.4 400.767 331.068 402.887C347.737 405.006 364.665 403.627 380.771 398.838C396.877 394.049 411.808 385.955 424.608 375.073C437.409 364.191 447.8 350.76 455.117 335.638C450.859 341.409 446.097 346.791 440.889 351.723Z" fill="#CED0D0"/>
<path d="M345.733 406.399C325.041 406.409 304.678 401.224 286.511 391.321L286.062 391.078C259.678 376.566 239.428 353.012 229.042 324.754C228.808 324.143 228.583 323.505 228.377 322.85C220.172 299.248 219.264 273.724 225.771 249.6C232.277 225.476 245.898 203.87 264.859 187.592C283.82 171.314 307.243 161.121 332.079 158.338C356.916 155.554 382.015 160.311 404.11 171.988C404.353 172.104 404.596 172.239 404.829 172.374C428.089 184.875 446.767 204.448 458.164 228.263C469.562 252.077 473.088 278.899 468.231 304.849C463.375 330.799 450.388 354.532 431.149 372.616C411.91 390.7 387.417 402.197 361.211 405.447C356.076 406.079 350.907 406.397 345.733 406.399ZM345.94 164.682C327.221 164.688 308.776 169.172 292.145 177.759C275.513 186.346 261.178 198.786 250.336 214.041C239.495 229.296 232.461 246.923 229.823 265.45C227.185 283.977 229.018 302.866 235.172 320.54V320.648C235.342 321.187 235.54 321.726 235.738 322.256C245.525 348.911 264.625 371.127 289.513 384.806L289.828 384.977C314.365 398.396 342.893 402.604 370.261 396.84C397.629 391.077 422.035 375.723 439.075 353.549C456.113 331.375 464.663 303.843 463.18 275.92C461.696 247.998 450.277 221.525 430.984 201.281C422.39 192.195 412.391 184.55 401.369 178.637L401.234 178.556L400.947 178.403L400.812 178.331C383.911 169.373 365.07 164.696 345.94 164.709V164.682ZM345.94 363.995C345.194 363.995 344.457 363.995 343.711 363.995C322.069 363.701 301.423 354.861 286.276 339.406C271.128 323.95 262.709 303.133 262.856 281.495C263.004 259.858 271.704 239.156 287.061 223.908C302.417 208.66 323.182 200.102 344.825 200.102C366.468 200.102 387.234 208.66 402.59 223.908C417.946 239.156 426.647 259.858 426.794 281.495C426.942 303.133 418.523 323.95 403.375 339.406C388.228 354.861 367.581 363.701 345.94 363.995ZM345.841 207.086C326.677 207.046 308.236 214.405 294.367 227.627C281.799 239.543 273.753 255.447 271.599 272.63C269.446 289.812 273.317 307.21 282.555 321.858C291.793 336.506 305.825 347.499 322.262 352.964C338.697 358.429 356.521 358.027 372.694 351.827C388.866 345.628 402.389 334.013 410.956 318.963C419.525 303.914 422.609 286.359 419.682 269.292C416.756 252.223 408 236.698 394.908 225.36C381.816 214.022 365.197 207.574 347.881 207.113C347.216 207.113 346.545 207.113 345.868 207.113L345.841 207.086Z" fill="#314E5D"/>
<path d="M440.991 380.472L440.984 380.478C430.741 390.19 430.311 406.364 440.025 416.606L512.702 493.225C522.416 503.466 538.595 503.896 548.839 494.184L548.845 494.178C559.089 484.466 559.518 468.29 549.804 458.049L477.128 381.43C467.414 371.188 451.234 370.76 440.991 380.472Z" fill="#426372"/>
<path d="M530.194 504.776H529.394C525.567 504.69 521.794 503.846 518.295 502.293C514.796 500.74 511.64 498.508 509.009 495.728L436.341 419.097C433.706 416.319 431.644 413.05 430.273 409.475C428.902 405.901 428.249 402.091 428.35 398.264C428.451 394.437 429.306 390.667 430.864 387.171C432.423 383.673 434.655 380.518 437.433 377.884C440.212 375.249 443.482 373.188 447.058 371.817C450.633 370.446 454.443 369.792 458.271 369.894C462.099 369.995 465.87 370.85 469.368 372.408C472.865 373.966 476.022 376.197 478.657 378.976L551.334 455.579C556.637 461.198 559.498 468.687 559.293 476.409C559.087 484.131 555.832 491.458 550.237 496.788C544.837 501.935 537.656 504.797 530.194 504.776ZM457.49 377.089C453.2 377.098 449.007 378.363 445.427 380.726C441.847 383.089 439.038 386.448 437.343 390.388C435.649 394.329 435.146 398.678 435.894 402.901C436.642 407.123 438.61 411.036 441.554 414.155L514.222 490.767C518.242 494.976 523.764 497.426 529.583 497.581C535.403 497.736 541.047 495.584 545.285 491.594C549.496 487.575 551.946 482.055 552.101 476.237C552.255 470.419 550.103 464.776 546.112 460.539L473.444 383.927C471.391 381.76 468.917 380.037 466.173 378.861C463.429 377.685 460.475 377.081 457.49 377.089Z" fill="#314E5D"/>
<g opacity="0.5">
<path opacity="0.5" d="M465.489 390.053C474.477 397.601 481.425 406.991 489.82 415.114C492.319 417.532 496.112 413.722 493.631 411.305C485.236 403.217 478.288 393.791 469.3 386.243C466.658 384.024 462.829 387.816 465.489 390.053Z" fill="white"/>
<path opacity="0.5" d="M449.976 388.356C451.416 387.463 453.035 386.9 454.716 386.704C456.399 386.508 458.104 386.686 459.71 387.224C463.045 388.194 464.474 382.991 461.148 382.021C458.846 381.295 456.416 381.068 454.02 381.357C451.624 381.644 449.316 382.441 447.253 383.692C444.278 385.489 446.983 390.135 449.949 388.347L449.976 388.356Z" fill="white"/>
</g>
<path d="M375.744 183.444C390.08 187.802 403.562 194.775 414.761 204.722C428.98 217.302 438.651 233.818 444.565 251.753C445.644 255.033 450.857 253.631 449.769 250.316C443.577 231.535 433.474 214.112 418.581 200.894C406.645 190.309 392.39 182.922 377.191 178.232C373.866 177.216 372.446 182.419 375.753 183.435L375.744 183.444Z" fill="white"/>
<path d="M323.371 178.44C332.745 177.2 342.461 177.658 351.827 178.611C355.278 178.961 355.251 173.57 351.827 173.219C342.461 172.267 332.745 171.809 323.371 173.049C319.982 173.498 319.937 178.898 323.371 178.44Z" fill="white"/>
</g>
</g>
<defs>
<clipPath id="clip0_36_341">
<rect width="675" height="505" fill="white"/>
</clipPath>
</defs>
</svg>
