<svg width="75" height="75" viewBox="0 0 75 75" fill="none" xmlns="http://www.w3.org/2000/svg">
<path d="M37.5 70.3125C19.4109 70.3125 4.6875 55.5937 4.6875 37.5C4.6875 19.4063 19.4109 4.6875 37.5 4.6875C55.5891 4.6875 70.3125 19.4063 70.3125 37.5C70.3125 55.5937 55.5891 70.3125 37.5 70.3125ZM37.5 9.375C21.9891 9.375 9.375 21.9891 9.375 37.5C9.375 53.0109 21.9891 65.625 37.5 65.625C53.0109 65.625 65.625 53.0109 65.625 37.5C65.625 21.9891 53.0109 9.375 37.5 9.375Z" fill="black"/>
<path d="M37.5001 47.6579C43.1101 47.6579 47.6579 43.1101 47.6579 37.5001C47.6579 31.8901 43.1101 27.3423 37.5001 27.3423C31.8901 27.3423 27.3423 31.8901 27.3423 37.5001C27.3423 43.1101 31.8901 47.6579 37.5001 47.6579Z" fill="black"/>
</svg>
